HIERARCHY
ROOT hip
{
  OFFSET 0 0 0
  CHANNELS 6 Xposition Yposition Zposition Zrotation Yrotation Xrotation
  JOINT abdomen
  {
    OFFSET 0 20.6881 -0.73152
    CHANNELS 3 Zrotation Xrotation Yrotation
    JOINT chest
    {
      OFFSET 0 11.7043 -0.48768
      CHANNELS 3 Zrotation Xrotation Yrotation
      JOINT neck
      {
        OFFSET 0 22.1894 -2.19456
        CHANNELS 3 Zrotation Xrotation Yrotation
        JOINT head
        {
          OFFSET -0.24384 7.07133 1.2192
          CHANNELS 3 Zrotation Xrotation Yrotation
          JOINT leftEye
          {
            OFFSET 4.14528 8.04674 8.04672
            CHANNELS 3 Zrotation Xrotation Yrotation
            End Site
            {
              OFFSET 1 0 0
            }
          }
          JOINT rightEye
          {
            OFFSET -3.6576 8.04674 8.04672
            CHANNELS 3 Zrotation Xrotation Yrotation
            End Site
            {
              OFFSET 1 0 0
            }
          }
        }
      }
      JOINT rCollar
      {
        OFFSET -2.68224 19.2634 -4.8768
        CHANNELS 3 Zrotation Xrotation Yrotation
        JOINT rShldr
        {
          OFFSET -8.77824 -1.95073 1.46304
          CHANNELS 3 Zrotation Xrotation Yrotation
          JOINT rForeArm
          {
            OFFSET -28.1742 -1.7115 0.48768
            CHANNELS 3 Zrotation Xrotation Yrotation
            JOINT rHand
            {
              OFFSET -22.5879 0.773209 7.07136
              CHANNELS 3 Zrotation Xrotation Yrotation
              JOINT rThumb1
              {
                OFFSET -1.2192 -0.487915 3.41376
                CHANNELS 3 Zrotation Xrotation Yrotation
                JOINT rThumb2
                {
                  OFFSET -3.37035 -0.52449 3.41376
                  CHANNELS 3 Zrotation Xrotation Yrotation
                  End Site
                  {
                    OFFSET -1.78271 -1.18214 1.43049
                  }
                }
              }
              JOINT rIndex1
              {
                OFFSET -7.75947 0.938293 5.60832
                CHANNELS 3 Zrotation Xrotation Yrotation
                JOINT rIndex2
                {
                  OFFSET -2.54057 -0.884171 1.56538
                  CHANNELS 3 Zrotation Xrotation Yrotation
                  End Site
                  {
                    OFFSET -1.62519 -0.234802 1.16502
                  }
                }
              }
              JOINT rMid1
              {
                OFFSET -8.24714 1.18213 3.41376
                CHANNELS 3 Zrotation Xrotation Yrotation
                JOINT rMid2
                {
                  OFFSET -3.10165 -0.590103 1.0647
                  CHANNELS 3 Zrotation Xrotation Yrotation
                  End Site
                  {
                    OFFSET -2.48547 -0.328903 0.83742
                  }
                }
              }
              JOINT rRing1
              {
                OFFSET -8.82822 0.546677 1.51678
                CHANNELS 3 Zrotation Xrotation Yrotation
                JOINT rRing2
                {
                  OFFSET -2.60934 -0.819778 -0.0198488
                  CHANNELS 3 Zrotation Xrotation Yrotation
                  End Site
                  {
                    OFFSET -2.33842 -0.294052 0.168128
                  }
                }
              }
              JOINT rPinky1
              {
                OFFSET -8.27202 -0.0477905 -0.4584
                CHANNELS 3 Zrotation Xrotation Yrotation
                JOINT rPinky2
                {
                  OFFSET -1.82734 -0.647385 -0.700984
                  CHANNELS 3 Zrotation Xrotation Yrotation
                  End Site
                  {
                    OFFSET -1.69225 -0.51767 -0.607171
                  }
                }
              }
            }
          }
        }
      }
      JOINT lCollar
      {
        OFFSET 2.68224 19.2634 -4.8768
        CHANNELS 3 Zrotation Xrotation Yrotation
        JOINT lShldr
        {
          OFFSET 8.77824 -1.95073 1.46304
          CHANNELS 3 Zrotation Xrotation Yrotation
          JOINT lForeArm
          {
            OFFSET 28.1742 -1.7115 0.48768
            CHANNELS 3 Zrotation Xrotation Yrotation
            JOINT lHand
            {
              OFFSET 22.5879 0.773209 7.07136
              CHANNELS 3 Zrotation Xrotation Yrotation
              JOINT lThumb1
              {
                OFFSET 1.2192 -0.487915 3.41376
                CHANNELS 3 Zrotation Xrotation Yrotation
                JOINT lThumb2
                {
                  OFFSET 3.37035 -0.52449 3.41376
                  CHANNELS 3 Zrotation Xrotation Yrotation
                  End Site
                  {
                    OFFSET 1.78271 -1.18214 1.43049
                  }
                }
              }
              JOINT lIndex1
              {
                OFFSET 7.75947 0.938293 5.60832
                CHANNELS 3 Zrotation Xrotation Yrotation
                JOINT lIndex2
                {
                  OFFSET 2.54057 -0.884171 1.56538
                  CHANNELS 3 Zrotation Xrotation Yrotation
                  End Site
                  {
                    OFFSET 1.62519 -0.234802 1.16502
                  }
                }
              }
              JOINT lMid1
              {
                OFFSET 8.24714 1.18213 3.41376
                CHANNELS 3 Zrotation Xrotation Yrotation
                JOINT lMid2
                {
                  OFFSET 3.10165 -0.590103 1.0647
                  CHANNELS 3 Zrotation Xrotation Yrotation
                  End Site
                  {
                    OFFSET 2.48547 -0.328903 0.83742
                  }
                }
              }
              JOINT lRing1
              {
                OFFSET 8.82822 0.546677 1.51678
                CHANNELS 3 Zrotation Xrotation Yrotation
                JOINT lRing2
                {
                  OFFSET 2.60934 -0.819778 -0.0198488
                  CHANNELS 3 Zrotation Xrotation Yrotation
                  End Site
                  {
                    OFFSET 2.33842 -0.294052 0.168128
                  }
                }
              }
              JOINT lPinky1
              {
                OFFSET 8.27202 -0.0477905 -0.4584
                CHANNELS 3 Zrotation Xrotation Yrotation
                JOINT lPinky2
                {
                  OFFSET 1.82734 -0.647385 -0.700984
                  CHANNELS 3 Zrotation Xrotation Yrotation
                  End Site
                  {
                    OFFSET 1.69225 -0.51767 -0.607171
                  }
                }
              }
            }
          }
        }
      }
    }
  }
  JOINT rButtock
  {
    OFFSET -8.77824 4.35084 1.2192
    CHANNELS 3 Zrotation Xrotation Yrotation
    JOINT rThigh
    {
      OFFSET 0 -1.70687 -2.19456
      CHANNELS 3 Zrotation Xrotation Yrotation
      JOINT rShin
      {
        OFFSET 0 -36.8199 0.73152
        CHANNELS 3 Zrotation Xrotation Yrotation
        JOINT rFoot
        {
          OFFSET 0.73152 -45.1104 -5.12064
          CHANNELS 3 Zrotation Xrotation Yrotation
          End Site
          {
            OFFSET -1.1221 -3.69964 12.103
          }
        }
      }
    }
  }
  JOINT lButtock
  {
    OFFSET 8.77824 4.35084 1.2192
    CHANNELS 3 Zrotation Xrotation Yrotation
    JOINT lThigh
    {
      OFFSET 0 -1.70687 -2.19456
      CHANNELS 3 Zrotation Xrotation Yrotation
      JOINT lShin
      {
        OFFSET 0 -36.8199 0.73152
        CHANNELS 3 Zrotation Xrotation Yrotation
        JOINT lFoot
        {
          OFFSET -0.73152 -45.1104 -5.12064
          CHANNELS 3 Zrotation Xrotation Yrotation
          End Site
          {
            OFFSET 1.1221 -3.69964 12.103
          }
        }
      }
    }
  }
}
MOTION
Frames:	4
Frame Time:	0.03333
0.0003699999942909926 51.80270004272461 -0.010999999940395355 -14.267699718475342 -25.688800513744354 11.317200064659119 11.008200198411942 3.876260071992874 2.0373799838125706 3.2412098720669746 -5.736620128154755 0.5923400027677417 -5.4572999104857445 9.569549784064293 -4.704409874975681 7.312120199203491 -12.38039955496788 -7.889579683542252 0.0 0.0 0.0 0.0 0.0 0.0 -3.197442310920451e-13 0.0 0.0 103.52800011634827 51.112802624702454 -52.4377977848053 -27.34110027551651 -43.02489906549454 89.54259753227234 -3.9123300835490227 -47.604902386665344 -8.855209797620773 2.545963440070409e-09 -6.305356237135129e-09 3.888089850079268e-10 4.380655838076564e-09 -1.0684573226171779e-08 7.571543392259628e-10 2.545963440070409e-09 -6.305356237135129e-09 3.888089850079268e-10 7.7309102565050125 5.474880114197731 0.41731400415301323 2.545963440070409e-09 -6.305356237135129e-09 3.888089850079268e-10 2.905540131032467 0.9651830233633518 0.102901995414868 2.545963440070409e-09 -6.305356237135129e-09 3.888089850079268e-10 10.27859978377819 0.7318009994924068 0.025912300043273717 2.545963440070409e-09 -6.305356237135129e-09 3.888089850079268e-10 2.221670038998127 -0.733487019315362 -0.2089200052432716 -3.197442310920451e-13 0.0 0.0 -40.735799968242645 29.405100345611572 -38.015801310539246 16.51910036802292 -9.178609773516655 -30.776401162147522 1.0717399790883064 28.032699823379517 -4.29143987596035 7.736211671272031e-10 8.697043085703626e-09 4.256435204297304e-09 1.425100037977245e-09 1.4749161891813856e-08 7.325979822780937e-09 7.736211671272031e-10 8.697043085703626e-09 4.256435204297304e-09 -7.7309102565050125 5.474880114197731 -0.41731400415301323 7.736211671272031e-10 8.697043085703626e-09 4.256435204297304e-09 -2.905540131032467 0.9651830233633518 -0.102901995414868 7.736211671272031e-10 8.697043085703626e-09 4.256435204297304e-09 -10.27859978377819 0.7318009994924068 -0.025912300043273717 7.736211671272031e-10 8.697043085703626e-09 4.256435204297304e-09 -2.221670038998127 -0.733487019315362 0.2089200052432716 0.0 0.0 0.0 -9.563740119338036 14.996199756860733 0.6606240151450038 0.09910349501296878 29.2767995595932 2.3908699862658978 -11.094399690628052 -17.910899966955185 -36.29549950361252 0.0 0.0 0.0 82.53480076789856 -52.109500765800476 77.12540209293365 7.165029868483543 81.79880261421204 -6.6885703057050705 -0.10578700457699597 -4.519369974732399 -3.998119868338108
0.003980000008596107 51.81060028076172 -0.023000000044703484 -14.26760047674179 -25.696098804473877 11.340399831533432 10.99290020763874 3.8799501210451126 2.049100063741207 3.2215499505400658 -5.728570148348808 0.5934760021045804 -5.4782600328326225 9.532130286097527 -4.719860069453716 7.356359884142876 -12.442999631166458 -7.90460005402565 0.0 0.0 0.0 0.0 0.0 0.0 -1.5987211554602254e-13 0.0 0.0 103.52499604225159 51.13670110702515 -52.417402267456055 -27.342500388622284 -43.02279889583588 89.53420221805573 -3.9083000645041466 -47.587398290634155 -8.849740102887154 1.8767387643947586e-09 -4.461071512196213e-09 3.9904080040287226e-10 3.225579803256551e-09 -7.55619566916721e-09 7.469225238310173e-10 1.8767387643947586e-09 -4.461071512196213e-09 3.9904080040287226e-10 7.7309102565050125 5.474880114197731 0.41731400415301323 1.8767387643947586e-09 -4.461071512196213e-09 3.9904080040287226e-10 2.905540131032467 0.9651830233633518 0.102901995414868 1.8767387643947586e-09 -4.461071512196213e-09 3.9904080040287226e-10 10.27859978377819 0.7318009994924068 0.025912300043273717 1.8767387643947586e-09 -4.461071512196213e-09 3.9904080040287226e-10 2.221670038998127 -0.733487019315362 -0.2089200052432716 -1.5987211554602254e-13 0.0 0.0 -40.74889987707138 29.35119867324829 -38.018800020217896 16.513499915599823 -9.173160195350647 -30.764400959014893 1.0746100265532732 28.066299855709076 -4.2975301668047905 7.785772027091298e-10 6.405116437235847e-09 3.3458036341471598e-09 1.4151879668133915e-09 1.083805045709596e-08 5.750280251959339e-09 7.785772027091298e-10 6.405116437235847e-09 3.3458036341471598e-09 -7.7309102565050125 5.474880114197731 -0.41731400415301323 7.785772027091298e-10 6.405116437235847e-09 3.3458036341471598e-09 -2.905540131032467 0.9651830233633518 -0.102901995414868 7.785772027091298e-10 6.405116437235847e-09 3.3458036341471598e-09 -10.27859978377819 0.7318009994924068 -0.025912300043273717 7.785772027091298e-10 6.405116437235847e-09 3.3458036341471598e-09 -2.221670038998127 -0.733487019315362 0.2089200052432716 0.0 0.0 0.0 -9.580499902367592 14.959399849176407 0.6457250146195292 0.09989970247261226 29.2863991856575 2.3898599669337273 -11.08250007033348 -17.915100306272507 -36.27170026302338 0.0 0.0 0.0 82.50660002231598 -52.11870074272156 77.09119856357574 7.132190242409706 81.77019953727722 -6.658679768443108 -0.10302999755367637 -4.514529928565025 -3.9670199900865555
0.0095399999700021 51.81660079956055 -0.0409999992698431 -14.237799793481827 -25.724900364875793 11.343099474906921 10.952699929475784 3.882799968123436 2.0696999318897724 3.2091299816966057 -5.723109841346741 0.5968459881842136 -5.490959957242012 9.516429975628853 -4.7335899621248245 7.390560060739517 -12.566000372171402 -7.916350141167641 0.0 0.0 0.0 0.0 0.0 0.0 0.0 0.0 0.0 103.51600527763367 51.14260196685791 -52.39310145378113 -27.343398928642273 -43.02239924669266 89.52899873256683 -3.910210132598877 -47.59570240974426 -8.852329775691032 8.991207778308308e-10 -1.887769940367434e-09 3.376499080331996e-10 1.5408474496325653e-09 -3.192326403222978e-09 6.139089236967266e-10 8.991207778308308e-10 -1.887769940367434e-09 3.376499080331996e-10 7.7309102565050125 5.474880114197731 0.41731400415301323 8.991207778308308e-10 -1.887769940367434e-09 3.376499080331996e-10 2.905540131032467 0.9651830233633518 0.102901995414868 8.991207778308308e-10 -1.887769940367434e-09 3.376499080331996e-10 10.27859978377819 0.7318009994924068 0.025912300043273717 8.991207778308308e-10 -1.887769940367434e-09 3.376499080331996e-10 2.221670038998127 -0.733487019315362 -0.2089200052432716 0.0 0.0 0.0 -40.76550006866455 29.29370015859604 -38.02989900112152 16.508199870586395 -9.167909771203995 -30.752800405025482 1.0765200108289719 28.08880090713501 -4.301590025424957 6.828138054970623e-10 3.0311753107525874e-09 1.892885848064907e-09 1.219824241616152e-09 5.090328158985358e-09 3.2537172955926508e-09 6.828138054970623e-10 3.0311753107525874e-09 1.892885848064907e-09 -7.7309102565050125 5.474880114197731 -0.41731400415301323 6.828138054970623e-10 3.0311753107525874e-09 1.892885848064907e-09 -2.905540131032467 0.9651830233633518 -0.102901995414868 6.828138054970623e-10 3.0311753107525874e-09 1.892885848064907e-09 -10.27859978377819 0.7318009994924068 -0.025912300043273717 6.828138054970623e-10 3.0311753107525874e-09 1.892885848064907e-09 -2.221670038998127 -0.733487019315362 0.2089200052432716 0.0 0.0 0.0 -9.609290063381195 14.901099354028702 0.6261999998241663 0.10130900423973799 29.31740015745163 2.3897300474345684 -11.08020007610321 -17.925099581480026 -36.257599890232086 0.0 0.0 0.0 82.47710108757019 -52.123501896858215 77.07759976387024 7.094949781894684 81.73759996891022 -6.623159945011139 -0.10153000359423459 -4.507799930870533 -3.9475900679826736
0.013900000107241794 51.82040023803711 -0.05899999849498272 -14.199900180101395 -25.758500397205353 11.335299611091614 10.888100266456604 3.90779010951519 2.1034099347889423 3.2061701640486717 -5.716370120644569 0.6064500147476792 -5.492219924926758 9.526480212807655 -4.740450046956539 7.409100160002708 -12.748999446630478 -7.916490286588669 0.0 0.0 0.0 0.0 0.0 0.0 0.0 0.0 0.0 103.50399971008301 51.11780226230621 -52.36800134181976 -27.341899573802948 -43.02669882774353 89.53810214996338 -3.916799984872341 -47.62419819831848 -8.861260190606117 1.04988018279073e-09 -1.7598722479306161e-09 6.446043698815629e-10 1.7844925537247036e-09 -2.9032776183157694e-09 1.1459633242338896e-09 1.04988018279073e-09 -1.7598722479306161e-09 6.446043698815629e-10 7.7309102565050125 5.474880114197731 0.41731400415301323 1.04988018279073e-09 -1.7598722479306161e-09 6.446043698815629e-10 2.905540131032467 0.9651830233633518 0.102901995414868 1.04988018279073e-09 -1.7598722479306161e-09 6.446043698815629e-10 10.27859978377819 0.7318009994924068 0.025912300043273717 1.04988018279073e-09 -1.7598722479306161e-09 6.446043698815629e-10 2.221670038998127 -0.733487019315362 -0.2089200052432716 0.0 0.0 0.0 -40.76720058917999 29.23819988965988 -38.07019919157028 16.498800069093704 -9.158959910273552 -30.732799172401428 1.075690034776926 28.079000115394592 -4.299830161035061 1.1079137607339362e-09 7.290168468898628e-10 1.4017587091075256e-09 1.943245564461904e-09 1.1127099242003169e-09 2.384012987022288e-09 1.1079137607339362e-09 7.290168468898628e-10 1.4017587091075256e-09 -7.7309102565050125 5.474880114197731 -0.41731400415301323 1.1079137607339362e-09 7.290168468898628e-10 1.4017587091075256e-09 -2.905540131032467 0.9651830233633518 -0.102901995414868 1.1079137607339362e-09 7.290168468898628e-10 1.4017587091075256e-09 -10.27859978377819 0.7318009994924068 -0.025912300043273717 1.1079137607339362e-09 7.290168468898628e-10 1.4017587091075256e-09 -2.221670038998127 -0.733487019315362 0.2089200052432716 0.0 0.0 0.0 -9.646309912204742 14.859800040721893 0.6269379844889045 0.1019560033455491 29.342899918556213 2.3897099308669567 -11.084899976849556 -17.916200011968613 -36.270399391651154 0.0 0.0 0.0 82.42449760437012 -52.10510194301605 77.05540180206299 7.0592200756073 81.70560121536255 -6.587699800729752 -0.10326399933546782 -4.500899948179722 -3.9549000933766365
